<?xml version="1.0" encoding="utf-8"?>
<!-- Generator: Adobe Illustrator 28.0.0, SVG Export Plug-In . SVG Version: 6.00 Build 0)  -->
<svg version="1.1" id="图层_1" xmlns="http://www.w3.org/2000/svg" xmlns:xlink="http://www.w3.org/1999/xlink" x="0px" y="0px"
	 viewBox="0 0 120 120" style="enable-background:new 0 0 120 120;" xml:space="preserve">
<style type="text/css">
	.st0{fill:#0052D9;}
	.st1{fill:#FFFFFF;}
</style>
<g>
	<polygon class="st0" points="93.9,32.6 93.5,48.3 98.3,53.4 98.7,22.1 82,36.1 85.7,40 	"/>
	<path class="st0" d="M98.7,72.6l-0.1-14.2l-18.7-20L66.5,36V9.9L27.4,47.5L5,110.1h45.8L34.3,96l5-31.9l15.8-10.7l-7.2-7.7l13.3-21
		l-1.1,31.8L46.4,69l34.1,5.6l5.1-3.7l12.2,12.9l1.1,6.4l6.3,2.4c0,0-2.5,7-12.5,4.4c-10-2.5-20.6-9.2-20.6-9.2l-6.6,8.7l12.9,13.6
		h11.5l0.9-4.4c0,0,18,8.4,24.3-17L98.7,72.6z M80.1,69.2l-9.4-6.5l11.5-0.5l1.3,4.1L80.1,69.2z"/>
</g>
<g>
	<g>
		<path class="st1" d="M-1769.1-121.9c-131.2,0-262.5,0-393.7,0c0-182.5,0-365,0-547.4c131.2,0,262.5,0,393.7,0
			C-1769.1-486.8-1769.1-304.4-1769.1-121.9z M-2079.7-293.2c-0.2,0.2-0.4,0.4-0.6,0.5c3.5,8,6.9,16,10.4,23.9
			c4,9.2,9.5,18,11.5,27.6c2,9.7,0.5,20.2,0.5,30.3c0,0.6-0.1,1.3,0,1.9c0.2,1,0.3,2.1,0.9,2.8c5.9,7.9,11.7,15.9,18,23.5
			c3.5,4.2,7.9,7.6,13.7,8.6c0.9,0.1,1.8,1.2,2.2,2c7.4,14.3,19.3,21.6,35.2,22.4c8.2,0.4,16.5,0.3,24.7,0c16-0.5,27.8-7.8,35.4-22
			c0.5-0.9,1.3-2.1,2.1-2.2c6.6-1.2,11.3-5.3,15.4-10.1c5.4-6.4,10.4-13.1,15.2-20c1.3-1.9,2.1-4.6,2.2-6.9
			c0.3-8.9,0.1-17.7,0.2-26.6c0-2.1,0.5-4.2,1.3-6.1c5-11.6,10.1-23.1,15.2-34.7c2.1-4.9,4.2-9.7,6.3-14.6c-1.6,0.3-2.5,1-3.5,1.8
			c-10.2,8.7-20.3,17.4-30.5,26c-2.1,1.8-2.9,3.6-2.9,6.4c0.2,11.9,0.3,23.7,0.1,35.6c-0.2,12.5-6.3,22.1-15.6,29.9
			c-4.3,3.5-9.8,5.1-14.8,3c-10.8-4.5-21.1-9.9-32.5-15.3c2-1.1,2.9-1.7,3.9-2.2c5.5-2.8,10.9-5.5,16.4-8.3c3.6-1.8,6.8-4.1,8.4-8.9
			c-5.2,2.4-9.7,2.9-13.9-1c-3.3-3.2-8.7-5-6.4-12.1c5.2,2.5,10.1,4.8,15,7.1c5.9,2.8,8.6,1.9,11.2-4c0.7-1.6,1.3-3.3,1.3-5
			c0.2-5.6,0.3-11.2,0.2-16.9c0-1.3-0.9-3-1.9-3.8c-7.1-5.9-15.1-10-24.4-10.3c-9.5-0.4-19-0.2-28.5-0.2c-7,0-13.5,2-19.7,5.3
			c-1.6,0.8-3.1,1.6-4.9,2.5c-0.1-0.9-0.2-1.1-0.2-1.4c4.2-37,8.4-74,12.6-111c0.2-1.9,0.1-4-0.6-5.8c-3.3-8.1-6.7-16.1-10.2-24.2
			c-3.3-7.7-6.6-15.3-10.1-23.4c-19.8,12.1-39.4,24.1-59.8,36.5c4.4-7.8,8.4-14.7,12.3-21.5c0.3-0.5,0.9-0.8,1.4-1.2
			c5.2-3.9,10.4-7.8,15.5-11.8c4.9-3.8,9.7-7.7,14.5-11.6c-0.1-0.2-0.2-0.5-0.2-0.7c-6.9,0.3-13.8,0.7-21,1c0.3-1,0.5-1.7,0.8-2.3
			c7.9-15.2,15.8-30.3,23.9-45.5c0.5-1,1.9-1.9,3.1-2.3c10-3.6,20-7,30.1-10.4c1.4-0.5,2.8-0.8,4.6-1.3c7.3,31.2,14.5,62,21.8,92.9
			c0.3,0,0.5,0,0.8,0c9.1-31.1,18.1-62.2,27.3-93.7c19.6,9.3,38.8,18.4,58.6,27.7c-0.4-1.8-0.6-3.2-1-4.4c-4-14.1-8-28.1-11.8-42.2
			c-0.4-1.6-0.8-3.6-0.3-5c7.8-20.3,15.6-40.6,23.6-60.8c3.5-8.9,7.9-17.3,15.4-23.7c1.9-1.6,4.1-3,6.6-4.8c0.8,2,1.4,3.2,1.8,4.5
			c1.7,6.3,3.6,12.5,5,18.8c7.3,32.1,10.6,64.8,13.5,97.6c0.9,10.6-0.4,19.8-6.7,28.5c-4.6,6.3-8.1,13.4-12.2,20.2
			c-11.1-9.4-21.9-18.6-32.7-27.7c-0.2,0.2-0.5,0.4-0.7,0.7c12.6,29.7,25.2,59.3,37.9,89c-0.2,0.1-0.5,0.3-0.7,0.4
			c-25.6-15.6-51.2-31.2-77.2-47c-7.1,16.6-13.9,32.5-20.6,48.3c-0.4,0.9-0.4,2.3-0.1,3.2c3.2,9.9,6.5,19.8,10.1,30.6
			c4.6-8.6,8.8-16.5,12.9-24.3c3.8,0.4,7.4,0.7,11,1.1c7,0.8,12.1-2.3,16-7.8c1.5-2.1,2.5-4.5,3.8-6.9c6.4,2.7,12.7,5.4,20.1,8.5
			c-1.9,1.4-3.1,2.1-4,3c-8.9,8.8-17.8,17.6-26.5,26.5c-1.2,1.3-2.2,3.4-2.2,5.1c-0.1,14.2,0,28.5,0.1,42.7c0,0.8,0.2,1.7,0.3,2.5
			c0.3,0.1,0.7,0.1,1,0.2c10.8-23,21.5-46,32.3-69.1c9.2,5.2,18.1,10.1,26.8,15.2c1.5,0.9,2.8,2.8,3.2,4.4
			c4.3,18.9,8.4,37.8,12.3,56.7c0.4,1.9,0.2,4.3-0.5,6.1c-8,19.3-16.2,38.4-24.3,57.7c-1.2,2.8-2.4,5.7-3.5,8.5
			c1.7-0.3,2.7-1.1,3.7-2c15.8-14.7,31.6-29.5,47.5-44.1c2-1.8,2.2-3.4,1.6-5.8c-6.2-24.8-12.3-49.7-18.5-74.5
			c-4.8-19.4-9.6-38.8-14.5-58.2c-0.9-3.5-0.9-6.6,0.6-10.1c8-19.1,15.7-38.4,23.5-57.6c0.6-1.4,1-3.1,0.8-4.7
			c-3.8-31.7-7.4-63.5-11.6-95.2c-2.5-18.6-6.2-37-12.9-54.6c-1.5-3.9-3.8-7.7-6.6-10.7c-5.1-5.5-10.9-5.9-17.3-2
			c-3,1.9-6.2,4-8.4,6.8c-5.7,7.1-11.6,14.2-16.3,21.9c-18.2,29.6-33.4,60.9-48.7,92c-1.3,2.6-2.6,3.6-5.6,3.6
			c-22-0.2-44-0.2-66-0.1c-2.5,0-3.7-0.8-4.8-3c-10.8-21.4-21.6-42.8-32.8-64.1c-8.5-16.3-17.3-32.5-29.1-46.7
			c-3.4-4.1-7.5-7.7-12-10.5c-6.9-4.3-13.4-3.3-18.2,3.2c-3.5,4.8-6.3,10.5-8.1,16.3c-6.5,20.8-9.9,42.3-12.7,63.9
			c-3.1,23.5-5.6,47.1-8.2,70.7c-0.6,5.2-1.7,10.3,0.6,15.8c8,18.7,15.4,37.7,23,56.6c0.6,1.6,0.8,3.7,0.5,5.4
			c-2.3,10.1-4.8,20.2-7.3,30.2c-8.5,34.6-17.1,69.1-25.7,103.7c-0.9,3.7-0.7,6.4,2.4,9.2c16,14.4,31.7,29,47.5,43.6
			c0.6,0.5,1.3,0.9,2.4,1.7c-0.3-1.1-0.3-1.6-0.5-2c-9.1-21.3-18.2-42.5-27.1-63.8c-0.9-2.2-1.3-5.1-0.8-7.4
			c3.6-16.5,7.9-32.8,10.9-49.4c1.4-7.7,4.8-12.4,11.6-15.6c5.1-2.4,9.9-5.7,15.1-8.8c10.4,30.4,20.7,60.2,30.9,90
			c-0.3,0.2-0.5,0.3-0.8,0.5C-2060.8-279.5-2070.3-286.4-2079.7-293.2z"/>
		<path d="M-2079.7-293.2c9.4,6.8,18.8,13.7,28.2,20.5c0.3-0.2,0.5-0.3,0.8-0.5c-10.2-29.8-20.5-59.6-30.9-90
			c-5.3,3.1-10,6.4-15.1,8.8c-6.8,3.2-10.2,7.9-11.6,15.6c-2.9,16.6-7.3,32.9-10.9,49.4c-0.5,2.3-0.2,5.2,0.8,7.4
			c8.9,21.3,18,42.6,27.1,63.8c0.2,0.4,0.2,0.9,0.5,2c-1.1-0.8-1.8-1.2-2.4-1.7c-15.8-14.5-31.6-29.2-47.5-43.6
			c-3.1-2.8-3.4-5.4-2.4-9.2c8.7-34.5,17.2-69.1,25.7-103.7c2.5-10.1,5-20.1,7.3-30.2c0.4-1.7,0.2-3.8-0.5-5.4
			c-7.5-18.9-14.9-37.9-23-56.6c-2.3-5.5-1.2-10.6-0.6-15.8c2.6-23.6,5.1-47.2,8.2-70.7c2.8-21.5,6.2-43.1,12.7-63.9
			c1.8-5.7,4.5-11.4,8.1-16.3c4.8-6.5,11.3-7.6,18.2-3.2c4.5,2.8,8.6,6.5,12,10.5c11.8,14.2,20.6,30.4,29.1,46.7
			c11.1,21.2,21.9,42.7,32.8,64.1c1.1,2.3,2.4,3,4.8,3c22-0.1,44-0.1,66,0.1c3,0,4.3-0.9,5.6-3.6c15.3-31.2,30.5-62.4,48.7-92
			c4.8-7.7,10.6-14.8,16.3-21.9c2.2-2.7,5.4-4.9,8.4-6.8c6.4-4,12.2-3.5,17.3,2c2.8,3,5.1,6.8,6.6,10.7c6.8,17.6,10.5,36,12.9,54.6
			c4.2,31.7,7.8,63.5,11.6,95.2c0.2,1.5-0.3,3.2-0.8,4.7c-7.8,19.2-15.5,38.5-23.5,57.6c-1.5,3.5-1.5,6.6-0.6,10.1
			c4.9,19.4,9.7,38.8,14.5,58.2c6.2,24.8,12.3,49.7,18.5,74.5c0.6,2.5,0.3,4-1.6,5.8c-15.9,14.6-31.7,29.4-47.5,44.1
			c-0.9,0.9-2,1.7-3.7,2c1.2-2.8,2.3-5.7,3.5-8.5c8.1-19.2,16.3-38.4,24.3-57.7c0.8-1.8,0.9-4.2,0.5-6.1c-4-18.9-8.1-37.9-12.3-56.7
			c-0.4-1.7-1.7-3.6-3.2-4.4c-8.7-5.1-17.6-10-26.8-15.2c-10.8,23.1-21.6,46.1-32.3,69.1c-0.3-0.1-0.7-0.1-1-0.2
			c-0.1-0.8-0.3-1.7-0.3-2.5c-0.1-14.2-0.2-28.5-0.1-42.7c0-1.7,1-3.9,2.2-5.1c8.7-8.9,17.6-17.7,26.5-26.5c1-1,2.2-1.7,4-3
			c-7.5-3.2-13.7-5.8-20.1-8.5c-1.3,2.4-2.3,4.8-3.8,6.9c-3.8,5.5-9,8.6-16,7.8c-3.6-0.4-7.2-0.8-11-1.1
			c-4.2,7.8-8.3,15.7-12.9,24.3c-3.6-10.8-6.9-20.7-10.1-30.6c-0.3-1-0.3-2.3,0.1-3.2c6.7-15.9,13.5-31.7,20.6-48.3
			c26,15.8,51.6,31.4,77.2,47c0.2-0.1,0.5-0.3,0.7-0.4c-12.6-29.7-25.2-59.3-37.9-89c0.2-0.2,0.5-0.4,0.7-0.7
			c10.8,9.2,21.6,18.3,32.7,27.7c4.1-6.8,7.6-13.9,12.2-20.2c6.3-8.7,7.7-18,6.7-28.5c-2.9-32.8-6.3-65.4-13.5-97.6
			c-1.4-6.3-3.3-12.6-5-18.8c-0.4-1.3-1-2.5-1.8-4.5c-2.5,1.8-4.7,3.2-6.6,4.8c-7.4,6.4-11.8,14.8-15.4,23.7
			c-8,20.2-15.8,40.5-23.6,60.8c-0.5,1.4-0.2,3.4,0.3,5c3.9,14.1,7.9,28.1,11.8,42.2c0.4,1.3,0.6,2.6,1,4.4
			c-19.7-9.3-39-18.4-58.6-27.7c-9.2,31.5-18.3,62.6-27.3,93.7c-0.3,0-0.5,0-0.8,0c-7.2-30.8-14.4-61.7-21.8-92.9
			c-1.8,0.5-3.2,0.8-4.6,1.3c-10,3.4-20.1,6.9-30.1,10.4c-1.2,0.4-2.5,1.3-3.1,2.3c-8,15.1-16,30.3-23.9,45.5
			c-0.3,0.6-0.5,1.3-0.8,2.3c7.2-0.4,14.1-0.7,21-1c0.1,0.2,0.2,0.5,0.2,0.7c-4.8,3.9-9.6,7.8-14.5,11.6c-5.1,4-10.3,7.9-15.5,11.8
			c-0.5,0.4-1.1,0.7-1.4,1.2c-4,6.9-7.9,13.8-12.3,21.5c20.4-12.5,40-24.4,59.8-36.5c3.5,8.1,6.8,15.7,10.1,23.4
			c3.4,8,6.9,16.1,10.2,24.2c0.7,1.7,0.8,3.9,0.6,5.8c-4.1,37-8.4,74-12.6,111c0,0.2,0.1,0.5,0.2,1.4c1.7-0.9,3.3-1.7,4.9-2.5
			c6.1-3.3,12.6-5.4,19.7-5.3c9.5,0,19-0.2,28.5,0.2c9.3,0.4,17.3,4.5,24.4,10.3c1,0.8,1.9,2.5,1.9,3.8c0.1,5.6,0.1,11.2-0.2,16.9
			c-0.1,1.7-0.6,3.5-1.3,5c-2.7,6-5.3,6.9-11.2,4c-4.9-2.3-9.8-4.7-15-7.1c-2.3,7.1,3.1,9,6.4,12.1c4.2,4,8.7,3.4,13.9,1
			c-1.6,4.9-4.8,7.1-8.4,8.9c-5.4,2.8-10.9,5.5-16.4,8.3c-1,0.5-1.9,1.1-3.9,2.2c11.4,5.4,21.8,10.8,32.5,15.3
			c5.1,2.1,10.6,0.6,14.8-3c9.3-7.7,15.4-17.4,15.6-29.9c0.2-11.9,0-23.7-0.1-35.6c0-2.8,0.8-4.6,2.9-6.4
			c10.3-8.6,20.4-17.3,30.5-26c0.9-0.8,1.9-1.5,3.5-1.8c-2.1,4.9-4.1,9.8-6.3,14.6c-5.1,11.6-10.2,23.1-15.2,34.7
			c-0.8,1.9-1.3,4.1-1.3,6.1c-0.2,8.9,0,17.8-0.2,26.6c-0.1,2.3-0.8,5-2.2,6.9c-4.8,6.8-9.8,13.6-15.2,20c-4,4.8-8.8,8.9-15.4,10.1
			c-0.8,0.2-1.7,1.3-2.1,2.2c-7.5,14.2-19.4,21.5-35.4,22c-8.2,0.3-16.5,0.3-24.7,0c-15.9-0.7-27.8-8.1-35.2-22.4
			c-0.4-0.9-1.4-1.9-2.2-2c-5.8-1-10.2-4.4-13.7-8.6c-6.3-7.6-12.1-15.6-18-23.5c-0.6-0.7-0.7-1.8-0.9-2.8c-0.1-0.6,0-1.2,0-1.9
			c0-10.1,1.5-20.6-0.5-30.3c-2-9.6-7.5-18.4-11.5-27.6c-3.5-8-6.9-16-10.4-23.9C-2080.1-292.8-2079.9-293-2079.7-293.2z
			 M-2094.4-614c-0.7,1.7-1.4,3-1.7,4.4c-3.3,14.5-7.5,28.8-9.6,43.5c-3.8,27.1-6.3,54.3-9.5,81.5c-0.6,4.7,0.5,8.4,2.9,12.3
			c5.7,9.1,10.9,18.4,16.5,28c10.7-9.5,21.2-18.7,31.6-28c0.6-0.5,1-1.4,1.2-2.2c4.1-15.4,8.2-30.9,12.2-46.4c0.4-1.6,0.4-3.5-0.2-5
			c-4.7-13.6-9.3-27.2-14.4-40.6c-4.1-10.7-8.6-21.3-13.5-31.7C-2082-605-2087.5-610-2094.4-614z M-2046.4-275.6
			c0.9-1.7,1.4-2.4,1.7-3.1c9.3-20.7,18.4-41.5,28-62.1c2.5-5.5,3-10.2-0.4-15.3c-1.5-2.3-2.4-4.9-3.6-7.4
			c-3.7-7.8-3.7-7.9-12.4-6.7c-6.9,0.9-12.7-0.7-16.9-6.4c-1.9-2.6-3.4-5.4-5.3-8.4c-4.6,2-9.3,4.1-14.3,6.3c1,1.4,1.7,2.6,2.5,3.6
			c7,8.9,13.9,18,21.2,26.7c2.3,2.8,3.1,5.6,2.9,9.2C-2044.2-318.5-2045.3-297.6-2046.4-275.6z M-1944.7-175.2
			c-10-4.2-19.6-8.3-29.3-12.2c-0.9-0.4-2.2-0.4-3.1-0.1c-9.5,4.1-18.9,8.2-28.3,12.3c3.3,3.9,8.8,6.6,14.5,6.7
			c10.7,0.2,21.5,0.1,32.2,0.2C-1952.8-168.2-1948.6-171.1-1944.7-175.2z M-1916.8-393.4c13.2-0.8,25,4.8,37.7,6.1
			c-10.5-5.7-21.1-11.4-31.9-17.2C-1913-400.7-1914.9-397.1-1916.8-393.4z M-1990.2-237.4c-6.7,3.1-13.2,6.1-20.6,9.5
			c4.4,1.8,6.4,6.6,11.5,3.9C-1991.4-228.3-1989.4-230.9-1990.2-237.4z"/>
		<path class="st1" d="M-2094.4-614c6.8,4,12.4,8.9,15.6,15.7c4.9,10.4,9.4,21,13.5,31.7c5.1,13.4,9.7,27,14.4,40.6
			c0.5,1.5,0.6,3.4,0.2,5c-4,15.5-8.1,30.9-12.2,46.4c-0.2,0.8-0.6,1.7-1.2,2.2c-10.4,9.3-20.9,18.6-31.6,28
			c-5.6-9.5-10.8-18.9-16.5-28c-2.4-3.9-3.5-7.6-2.9-12.3c3.2-27.1,5.7-54.4,9.5-81.5c2.1-14.7,6.3-29,9.6-43.5
			C-2095.7-611-2095-612.3-2094.4-614z"/>
		<path class="st1" d="M-2046.4-275.6c1.2-22,2.2-42.8,3.4-63.7c0.2-3.6-0.6-6.3-2.9-9.2c-7.2-8.8-14.1-17.8-21.2-26.7
			c-0.8-1-1.5-2.2-2.5-3.6c5-2.2,9.7-4.3,14.3-6.3c1.9,3,3.4,5.8,5.3,8.4c4.2,5.7,10,7.3,16.9,6.4c8.7-1.1,8.7-1,12.4,6.7
			c1.2,2.5,2.1,5.1,3.6,7.4c3.3,5.1,2.9,9.9,0.4,15.3c-9.6,20.6-18.7,41.4-28,62.1C-2045-278-2045.5-277.3-2046.4-275.6z"/>
		<path class="st1" d="M-1944.7-175.2c-3.9,4.1-8.1,7-14,6.9c-10.7-0.2-21.5,0-32.2-0.2c-5.7-0.1-11.1-2.8-14.5-6.7
			c9.4-4.1,18.8-8.3,28.3-12.3c0.9-0.4,2.2-0.3,3.1,0.1C-1964.3-183.5-1954.7-179.4-1944.7-175.2z"/>
		<path class="st1" d="M-1916.8-393.4c1.9-3.7,3.8-7.3,5.8-11.1c10.8,5.8,21.4,11.5,31.9,17.2
			C-1891.8-388.6-1903.6-394.2-1916.8-393.4z"/>
		<path class="st1" d="M-1990.2-237.4c0.8,6.6-1.2,9.1-9.1,13.4c-5.2,2.8-7.2-2.1-11.5-3.9C-2003.4-231.3-1996.9-234.3-1990.2-237.4
			z"/>
	</g>
</g>
<path class="st1" d="M-3110.9,78.4c116.2,0,232.4,0,348.7,0c0,157.9,0,315.9,0,473.9c-116.2,0-232.5,0-348.7,0
	C-3110.9,394.4-3110.9,236.4-3110.9,78.4z M-3043.2,376.5c-0.3,1.4-0.4,2.1-0.6,2.8c-2.5,8.4-4.9,16.8-7.4,25.1
	c-0.6,2-0.4,3.4,1.1,5c18.8,20,37.6,40.2,56.4,60.2c0.7,0.8,1.5,1.4,2.9,2.7c0-5.5-0.2-10.1,0.1-14.6c0.2-3.4-0.7-5.9-3.1-8.4
	c-13.4-14.2-26.6-28.5-40-42.7c-1.8-2-2.4-3.6-1.6-6.2c3.7-12.9,7.1-25.8,10.6-38.7c0.7-2.5,1.2-5,2-8.1c-7,2.8-13.3,5.3-20.1,8.1
	c0.4-1.6,0.6-2.4,0.9-3.3c3.8-14.8,7.9-29.4,11.3-44.3c1.5-6.8,3.6-12.5,10-16.1c2.7-1.5,4.9-3.8,8.3-6.5c0,13.3-0.1,25.3,0.1,37.2
	c0,2.9,0.7,6,1.9,8.6c6.2,13.2,11.4,26.6,9.4,41.7c-0.1,0.9-0.2,1.8,0.1,2.6c1.6,4.5,2.3,10,5.3,13.2c7.6,8.2,16.2,15.5,24.7,23
	c3.2,2.8,6.9,4.8,11.5,4.8c9.4-0.1,18.8,0.2,28.1-0.1c2.5-0.1,5.5-0.8,7.3-2.3c9.8-8.4,19.6-16.7,28.6-25.8c2.9-2.9,3.7-8,4.8-12.3
	c0.7-2.7,0.5-5.7,0.3-8.6c-0.6-8.6,0.7-16.8,4.7-24.6c2.1-4,3.7-8.2,5.2-12.4c0.9-2.4,1.4-5.1,1.5-7.6c0.2-10.7,0.2-21.5,0.3-32.3
	c0-1.3,0.1-2.6,0.3-4.6c4.8,3.7,9,6.8,13,10.1c1.2,1,2.3,2.6,2.7,4.1c4.6,17.4,9.1,34.8,13.6,52.2c0.2,0.9,0.2,1.8,0.4,3.1
	c-6.8-2.7-13.1-5.1-19.9-7.8c0.4,1.7,0.5,2.6,0.8,3.6c3.9,14.3,7.7,28.7,11.8,43c0.7,2.5,0.3,4.1-1.5,6
	c-13.5,14.4-26.9,28.9-40.3,43.4c-1,1.1-2.5,2.3-2.5,3.6c-0.3,6.1-0.1,12.3-0.1,19.5c5.5-5.8,10.2-10.8,14.8-15.8
	c14.4-15.3,28.7-30.7,43.2-45.8c2.5-2.6,3-4.9,1.9-8.3c-2.5-7.5-4.5-15.1-6.7-22.6c-0.3-1-0.5-2.1-0.8-3.8
	c6.7,3.4,12.8,6.5,19.5,9.9c-0.2-1.4-0.2-1.9-0.3-2.4c-6-24.1-11.8-48.3-18.2-72.3c-3.9-14.5-7.3-29-6-44.2c0.1-1.7,0.4-3.5,1-5.1
	c4.1-11,8.6-21.9,12.5-32.9c1-2.9,1.4-6.4,1-9.4c-1.4-11.5-3.1-23-4.9-34.5c-3-19.9-5.6-39.9-12-59c-2.1-6.3-4.8-12.6-8.1-18.4
	c-3-5.3-5.8-5.5-10.2-1.3c-8,7.8-15.4,16.1-20.1,26.4c-8.9,19.3-17.7,38.6-26.4,58c-1.1,2.4-2.3,3.3-5,3.3c-13.5-0.1-27,0-40.5,0.2
	c-2.3,0-3.5-0.6-4.5-2.8c-7.5-16.7-15.4-33.4-22.8-50.1c-5.1-11.5-11.4-22.2-20.3-31.2c-8.7-8.8-12.4-8.5-17.1,2.9
	c-3.9,9.4-7.3,19.2-9.2,29.2c-4.2,21.4-6.8,43.2-10.9,64.6c-2.3,12.1-2.1,23.4,3.9,34.4c1.2,2.2,1.7,4.7,2.7,7
	c5,10.6,7.3,21.7,6.1,33.4c-0.3,2.7,0.1,5.6-0.5,8.2c-6.3,25.3-12.7,50.6-19.1,75.9c-1.7,6.6-3.2,13.2-5,20.6
	C-3056.1,383.1-3049.9,379.9-3043.2,376.5z"/>
</svg>
